<?xml version="1.0" encoding="UTF-8"?><svg id="Ebene_1" xmlns="http://www.w3.org/2000/svg" viewBox="0 0 424.41 289.43"><defs><style>.cls-1{fill:#1d1d1b;font-family:Rockwell-ExtraBold, 'Rockwell Extra Bold';font-size:40.99px;font-weight:700;}</style></defs><path d="M331.82,177.39c-8.02-3.82-15.38-7.35-22.76-10.82-8.87-4.18-17.4-8.88-25.15-14.99-9.39-7.41-8.74-19.02-4.7-26.85,2.73-5.29,6.48-10.12,8.73-15.58,4.84-11.72,9.01-23.71,13.43-35.6.65-1.73,1.18-3.51,1.94-5.77-4.45.26-8.57.44-12.68.74-5.96.44-11.91,1.07-17.88,1.4-5.49.31-5.47.19-7.42,5.32-2.68,7.05-5.38,14.09-8.1,21.12-1.18,3.04-1.17,6.08-.11,9.13,1.17,3.39.86,6.62-.78,9.8-2.29,4.45-4.79,5.8-9.75,5.09-6.25-.89-9.88-5.4-8.41-11.24,3.44-13.68,7.07-27.31,10.81-40.91,2.94-10.7,10.13-16.75,21.03-18.7,9.61-1.72,19.13-3.95,28.76-5.53,8.31-1.36,16.69-1.22,25.08-.08,4.37.59,8.89,1.14,13.24.71,5.23-.52,6.71-4.17,3.81-8.46-9.56-14.12-1.11-32.55,14.35-35.69,12.47-2.53,27.25,4.38,28.09,20.71.45,8.76-1.63,17.34-7.74,24.25-3.36,3.8-7.42,5.93-12.82,4.77-1.28-.28-3.44.35-4.16,1.33-1.17,1.59.2,3.3,1.58,4.3,5.89,4.21,9.24,10.15,12.14,16.59,3.31,7.36,7.08,14.51,10.68,21.74.38.77.95,1.45,1.67,2.51,3.12-2.11,6.16-4.09,9.11-6.19,2.18-1.55,4.27-3.23,6.38-4.87,2.7-2.1,5.02-4.38,5.89-7.97.88-3.64,3.56-5.72,7.3-6.05,4.56-.4,7.94,1.65,10,5.64,1.83,3.56,1.16,6.93-1.36,9.63-2.09,2.24-4.98,3.72-7.27,5.81-6.07,5.55-11.86,11.4-18.03,16.82-3.73,3.28-7.81,6.24-12.04,8.85-5.89,3.64-9.9,2.78-14.04-2.81-2.91-3.93-5.5-8.11-8.02-12.3-2.47-4.1-4.67-8.36-7-12.57-9.95,14.3-19.88,28.57-29.86,42.91,4.22,3.33,8.82,6.57,12.96,10.32,6.95,6.28,13.86,12.64,20.32,19.42,8.62,9.05,7.38,21.29-2.93,29.03-10.63,7.98-21.3,15.9-31.86,23.98-4.75,3.63-9.2,7.64-13.89,11.36-2.49,1.98-3.84,4.52-3.97,7.55-.2,4.64-.48,9.34.06,13.93.36,3.07,1.99,6.03,3.24,8.95.83,1.94,1.84,3.84.12,5.69-1.8,1.95-4.22,2.07-6.4,1.02-2.04-.98-4.05-2.31-5.64-3.92-7.91-8-13.05-17.77-17.08-28.11-2.05-5.26-.49-7.87,4.66-10.5,4.1-2.09,8.3-4.17,11.97-6.92,7.06-5.29,12.86-11.94,17.54-19.38,4.42-7.03,9.43-13.37,16.96-18.64Z"/><path d="M273.47,150.82c6.96,8.69,16.25,13.58,26.48,17.44-14.28,18.21-28.13,36.35-45.37,51.63-10.76,9.54-20.88,19.8-31.18,29.84-4.3,4.2-5.61,9.78-6.25,15.52-.22,1.95-.26,3.92-.35,5.89-.17,3.91.61,7.39,3.94,10,1.9,1.49,3.79,3.29,2.41,6.11-1.06,2.19-3.68,2.66-7.14,1.71-7.64-2.11-12.45-7.16-15.48-14.3-1.98-4.66-4.31-9.17-6.42-13.78-.66-1.44-1.34-2.95-1.58-4.5-.7-4.47.52-6.7,4.54-8.98.23-.13.45-.3.7-.39,11.13-3.63,17.56-12.28,23.3-21.7,3.06-5.02,6.3-9.93,9.36-14.94,4.02-6.57,9.35-11.84,15.44-16.51,2.84-2.17,5.61-4.84,7.42-7.87,6.9-11.52,13.39-23.29,20.16-35.19Z"/><rect x="45.92" y="80.49" width="178.36" height="14.65" rx="7.32" ry="7.32"/><rect x="86.25" y="101.9" width="138.02" height="14.65" rx="7.32" ry="7.32"/><rect x="86.25" y="123.31" width="138.02" height="14.65" rx="7.32" ry="7.32"/><rect x="45.92" y="144.72" width="178.36" height="14.65" rx="7.32" ry="7.32"/><text class="cls-1" transform="translate(0 195.6)"><tspan x="0" y="0">HAK Läuft</tspan></text></svg>